<svg width="13" height="6" fill="none" xmlns="http://www.w3.org/2000/svg"><mask id="path-1-inside-1" fill="#fff"><path d="M.51 2.5h10.538L9.82.937l.317-.296 2.125 2.054v.336l-2.125 2.047-.317-.3 1.228-1.563H.51V2.5z"/></mask><path d="M.51 2.5v-1h-1v1h1zm11.752.195h1v-.424l-.305-.295-.695.72zm0 .336l.694.72.306-.295v-.425h-1zM.51 3.215h-1v1h1v-1zm10.538 0l.786.618 1.271-1.618h-2.057v1zM9.82 4.777l-.786-.617-.562.715.66.627.688-.725zm.317.301l-.69.725.694.66.69-.665-.694-.72zm0-4.437l.695-.72-.685-.661-.695.651.685.73zM9.82.937L9.136.209l-.668.627.566.72.786-.617zM11.048 2.5v1h2.057l-1.27-1.618-.787.618zm.214.195v.336h2v-.336h-2zm-9.752.52V2.5h-2v.715h2zm9.538-1H.51v2h10.538v-2zm-.441 3.18l1.227-1.562-1.572-1.236L9.034 4.16l1.573 1.235zm.961-3.084L9.443 4.358l1.388 1.44 2.125-2.047-1.388-1.44zm-.742 2.042l-.317-.3-1.378 1.45.317.3 1.378-1.45zM9.442 1.36l2.125 2.054 1.39-1.438-2.125-2.054-1.39 1.438zm1.063.307l.316-.297L9.452-.09l-.316.297 1.369 1.459zM.51 3.5h10.538v-2H.51v2zm11.324-1.618L10.607.32 9.034 1.555l1.228 1.563 1.572-1.236z" fill="#fff" mask="url(#path-1-inside-1)"/></svg>