<svg width="22" height="20" fill="none" xmlns="http://www.w3.org/2000/svg"><path d="M10.683 20c5.89 0 10.682-4.486 10.682-10 0-.952-.142-1.89-.423-2.788-.138-.442-.63-.695-1.104-.566-.472.13-.742.592-.605 1.034.233.746.352 1.527.352 2.32 0 4.595-3.994 8.333-8.902 8.333-4.909 0-8.903-3.738-8.903-8.333 0-4.595 3.994-8.333 8.903-8.333 1.784 0 3.5.488 4.963 1.411.407.258.961.157 1.235-.225a.8.8 0 00-.24-1.156C14.883.587 12.823 0 10.683 0 4.793 0 0 4.486 0 10s4.793 10 10.683 10z" fill="#fff"/><path d="M19.812 1.628l-9.368 8.736L7.447 7.57a.957.957 0 00-1.287 0 .81.81 0 000 1.2l3.64 3.395a.94.94 0 00.644.249.94.94 0 00.644-.249l10.01-9.337a.809.809 0 000-1.2.957.957 0 00-1.286 0z" fill="#fff"/></svg>