<svg width="23" height="21" fill="none" xmlns="http://www.w3.org/2000/svg"><path d="M7.05 7.682l7.078 6.525c.679.675 1.255 1.068 1.922.603a.824.824 0 00.266-.603.824.824 0 00-.265-.603L8.33 6.477a.947.947 0 00-1.28 0 .817.817 0 000 1.205z" fill="#C3B595"/><path d="M7.05 7.682l7.078 6.525c.679.675 1.255 1.068 1.922.603a.824.824 0 00.266-.603.824.824 0 00-.265-.603L8.33 6.477a.947.947 0 00-1.28 0 .817.817 0 000 1.205z" fill="#C3B595"/><path d="M14.737 6.472l-7.079 6.523c-.731.626-1.158 1.158-.653 1.773.18.163.417.244.654.244a.973.973 0 00.653-.244l7.733-7.115a.78.78 0 000-1.181.997.997 0 00-1.308 0z" fill="#C3B595"/><path d="M14.737 6.472l-7.079 6.523c-.731.626-1.158 1.158-.653 1.773.18.163.417.244.654.244a.973.973 0 00.653-.244l7.733-7.115a.78.78 0 000-1.181.997.997 0 00-1.308 0z" fill="#C3B595"/><path d="M21.233 10.62c0 4.988-4.284 9.123-9.683 9.123s-9.682-4.135-9.682-9.123c0-4.989 4.283-9.123 9.682-9.123 5.4 0 9.683 4.134 9.683 9.123z" stroke="#C3B595" stroke-width="2"/></svg>