<svg width="184" height="39" fill="none" xmlns="http://www.w3.org/2000/svg"><path d="M123.046 14.683c0-.257 0-.578-.064-.835v-.193c-.064-.385-.064-.706-.193-1.091v-.065c0-.192-.064-.385-.064-.578-.064-.257-.064-.578-.193-.706-.064-.257-.192-.578-.257-.835-.064-.386-.256-.643-.385-1.028-.064-.257-.257-.578-.385-.835-.193-.257-.386-.578-.578-.835 0 0-.065 0-.065.064-.256.193-.578.257-.899.386-.449.192-1.284.385-1.991.45.193.385.386.834.578 1.22.065.192.193.385.193.578.064.257.193.578.257.899.064.385.193.642.257 1.028.385 1.477.578 3.018.578 4.752 0 10.855-6.423 12.782-9.442 12.782-6.101 0-10.983-5.588-10.983-14.387 0-8.221 4.304-12.332 9.956-12.332h.642c.193 0 .257 0 .45.064.192 0 .257 0 .449.064.193 0 .257.065.45.065.192.064.385.064.578.192.064 0 .193.065.385.065a.71.71 0 01.386.192c.192.065.385.193.578.257.192.064.385.193.578.257.192.064.385.193.578.385h.064c.45-.192.835-.192.835-.192s.642-.064 1.349-.257c.192-.064.449-.064.642-.193 0 0-.064 0-.064-.064-.193-.064-.45-.257-.643-.385-.256-.193-.578-.257-.834-.386-1.799-.835-3.918-1.284-6.102-1.284-9.442 0-13.424 8.606-13.424 14.644 0 6.744 3.918 14.708 13.295 14.708 8.222 0 13.617-6.937 13.617-15.35 0-.322 0-.771-.129-1.221zm-11.368 15.993z" fill="#fff"/><path d="M120.413 6.976c-.257.192-.578.257-.835.385-.064 0-.064.064-.192.064-.579.193-1.349.257-1.927.386-.257-.386-.899-1.285-1.285-1.67l-.706-.707s.642-.064 1.477-.385c.449-.064 1.028-.257 1.349-.386 0 0 .899.707 1.348 1.285.193.257.578.642.707.835-.064.064-.064.064.064.193zM70.252 30.29c-.257 0-.707 0-1.092-.064-.064 0-.257-.064-.385-.064-.835-.257-1.799-.835-3.212-4.11-2.312-5.653-8.157-21.067-8.67-22.416-.065-.064-.065-.257-.193-.386-.386-.834-.45-1.027-.707-1.027-.192 0-.385.193-.835 1.477l-8.413 23.058c-.643 1.798-1.35 3.275-3.083 3.468-.193 0-.45.064-.707.064 0-.064-.064-.064-.192-.064-.257 0-.707 0-1.22-.064h-.386c-1.028-.193-1.22-1.028-1.285-1.991-.192-1.542-.193-4.496-.193-8.029v-15.8l4.111.065c1.67.064 2.762.256 3.276.706.578.385.706.835.706 1.349v.385c0 .578.065.642.257.642.064 0 .257-.192.257-.45V5.756c0-.835.064-1.926.064-2.569v-.192c0-.257 0-.45-.192-.45-.065 0-.45.064-.9.193-.578.064-1.284.192-2.376.192H32.679c-.386 0-1.67-.064-2.57-.192-.899-.065-1.22-.45-1.477-.45-.192 0-.257.45-.385.707-.064.256-.706 3.468-.706 3.853 0 .257.064.386.192.386.129 0 .257-.065.386-.386.064-.257.192-.578.578-1.22.064-.257.256-.385.45-.578.577-.45 1.348-.642 2.954-.642l4.817-.065v15.48c0 3.596 0 6.486-.193 8.028-.064 1.091-.257 1.926-.9 1.99-.256.065-.706.193-1.027.193-.192 0-.257.065-.257.257 0 .193.193.257.578.257h.707c1.027 0 2.376-.064 2.569-.064.193 0 2.184.064 3.918.064.064.064.257.064.578.064 1.734 0 3.725-.064 4.239-.064.514 0 1.991.064 2.954.064.257 0 .386 0 .45-.064 0 0 .064-.064.064-.192 0-.193-.064-.257-.385-.257h-.386c-.642 0-1.348-.386-1.348-1.092 0-.643.192-1.542.578-2.44l2.12-6.488c.063-.193.192-.257.385-.257h7.964c.193 0 .257.064.385.193l.064.257 3.405 8.863c.192.642 0 .9-.193 1.028-.193 0-.257.064-.257.257 0 .257.45.257 1.092.257h.192c2.57.064 5.139.064 5.653.064.256 0 .578 0 .642-.064.064-.065.064-.065.064-.193.064-.193-.128-.193-.321-.193zM59.076 18.472h-7.129c-.064 0-.193-.064-.064-.257l3.275-10.083c.193-.578.386-.578.578 0l.386 1.092 3.083 8.991c.064.193.064.257-.129.257z" fill="#fff"/><path d="M44.56 32.924c0 .257-.065 1.477-.257 2.44-.064.45-.193.9-.257 1.22-.257.836-.386 1.028-2.377 1.028-2.633 0-4.56-.064-6.23-.064-1.605-.128-2.761-.128-3.789-.128h-1.541c-.45 0-1.028.064-1.478.064h-.642c-.385 0-.578-.064-.578-.257 0-.064.064-.193.257-.193.385 0 .835-.064 1.092-.192.706-.193.899-1.028 1.092-1.992.192-1.541.192-4.495.192-8.028v-6.487c0-5.78 0-6.872-.064-8.028 0-.835-.193-1.35-.578-1.67a2.173 2.173 0 00-1.028-.45c-.064 0-.192 0-.385-.064-.257 0-.642-.064-.9-.064-.192 0-.256-.065-.256-.193 0-.257.193-.257.578-.257 1.67 0 4.046.064 4.239.064.193 0 2.954-.064 4.046-.064.386 0 .578.064.578.257 0 .064 0 .193-.064.193s-.064.064-.193.064c-.257 0-.706 0-1.22.064-1.092.193-1.349.835-1.477 2.12-.064 1.22-.064 2.183-.064 8.028v6.616c0 5.459.192 7.835.835 8.477a2.04 2.04 0 001.348.643c.643.193 1.67.193 3.083.193 1.991 0 3.661 0 4.496-1.092.45-.578.835-1.542 1.028-2.184 0-.257.064-.45.385-.45.129-.128.129-.064.129.386z" fill="#fff"/><path d="M28.439 30.676c-.257 0-.706 0-1.092-.065-.064 0-.257-.064-.385-.064-.835-.192-1.799-.835-3.212-4.11-2.248-5.717-8.092-21.131-8.67-22.48-.065-.064-.065-.257-.193-.385-.385-.835-.45-1.028-.642-1.028-.257 0-.386.257-.835 1.477L5.06 27.08c-.642 1.798-1.349 3.276-3.083 3.468-.257 0-.835.064-1.092.064-.192 0-.385.065-.385.193 0 .257.193.257.706.257h.579c1.67 0 3.275-.064 3.66-.064.45 0 1.992.064 2.955.064.193 0 .385 0 .45-.064.064 0 .064-.064.064-.193 0-.193-.064-.193-.386-.193h-.45c-.641 0-1.348-.385-1.348-1.091 0-.643.193-1.542.578-2.441l2.184-6.616c.064-.192.193-.256.385-.256h7.964c.193 0 .257.064.386.192l.064.257 3.404 8.864c.193.642 0 .899-.257 1.027-.192 0-.257.064-.257.257 0 .257.386.257 1.092.257h.064c2.57.064 5.139.064 5.652.064.257 0 .578 0 .643-.064.064-.064.064-.064.064-.193.128-.192-.064-.192-.257-.192zM17.328 18.858h-7.13c-.064 0-.192-.064-.064-.257l3.211-10.084c.193-.578.386-.578.579 0l.385 1.092 3.083 8.992c.064.193.064.257-.064.257z" fill="#fff"/><path d="M117.458 7.875c-.257 0-.449.064-.578.064h-.064c-.835.064-1.798.193-2.377.257-1.734.193-2.312.642-3.468 1.349-1.092.578-1.927 1.22-2.44 1.734h-.065c-.385.385-.642.578-.706.706 0 0-.064 0-.064.065l-.065.064c.193-.386 1.67-3.083 4.047-4.817 2.119-1.542 3.853-1.734 3.853-1.734l.707.706c.257.257.835 1.156 1.22 1.606z" fill="#359444"/><path d="M121.89 5.755c-.192.193-.257.386-.385.45l-.064.064c-.257.257-.643.45-1.028.707l-.064-.065-.064-.064c-.193-.192-.45-.578-.707-.835-.385-.45-1.349-1.284-1.349-1.284h.065c.257-.065 1.284-.45 3.018-1.478.386-.192.643-.45.835-.642 1.477-1.284 1.734-2.44 1.734-2.44.193 2.119-.706 3.853-1.991 5.587z" fill="#C12A21"/><path d="M108.788 37.612c-.257 0-.707-.064-1.478-.064-3.018.064-8.863-7.707-10.983-10.276-1.99-2.441-4.817-5.395-7.771-9.313 3.276-3.083 4.367-5.845 4.367-8.607 0-2.569-1.67-4.367-2.569-5.138-1.927-1.477-4.367-1.67-6.68-1.67-1.091 0-3.917.064-4.303.064-.192 0-2.44-.064-4.11-.064-.386 0-.578.064-.578.257s.192.193.257.193c.385 0 .899 0 1.284.064 1.22.257 1.477.835 1.542 2.12.064 1.22.064 2.183.064 8.028v6.615c0 3.597 0 6.487-.193 8.157-.192 1.092-.385 1.927-1.092 2.12-.385.064-.706.192-1.091.192-.193 0-.257.065-.257.257 0 .193.192.257.578.257 1.091 0 3.404-.064 3.468-.064.193 0 2.44.064 4.496.064.385 0 .578-.064.578-.257 0-.064-.064-.257-.257-.257a8.875 8.875 0 01-1.67-.192c-1.092-.193-1.284-1.028-1.477-2.12-.193-1.541-.193-4.496-.193-8.157v-.899c0-.193.064-.257.257-.257l4.496.064c.193 0 .385.065.45.257.706 1.028 2.44 3.468 4.046 5.46 2.12 2.826 10.084 11.882 11.625 12.78 1.028.579 1.927.707 3.918.707h2.569c.642 0 .899-.064.899-.257.193 0 0-.064-.192-.064zm-26.912-7.386c.129 0 .129 0 0 0 .129 0 0 0 0 0zM80.27 17.124c-.128 0-.128 0 0 0-.128 0-.128 0 0 0 .065 0 .193.064.258.064-.129 0-.193-.064-.258-.064zm.322 12.717c-.064 0-.064-.065-.064-.065l.064.065s.064.064.192.064c-.064 0-.064 0-.192-.064zm.257-12.46s-.065 0-.193-.065c.128 0 .193.065.193.065zm6.872-.45c-.835.642-1.927.706-2.762.706-1.67 0-3.276-.256-3.853-.578-.193-.064-.257-.257-.257-.45V4.408c0-.257.064-.386.257-.45a15.96 15.96 0 012.44-.193c3.918 0 6.294 2.826 6.294 7.515.065 2.762-.835 4.817-2.12 5.652zm95.442 13.424c-.257 0-.707 0-1.092-.065-.064 0-.257-.064-.386-.064-.834-.257-1.798-.835-3.211-4.11-2.312-5.652-8.157-21.067-8.671-22.416-.064-.064-.064-.257-.064-.385-.385-.835-.449-1.028-.706-1.028-.193 0-.386.257-.835 1.477l-8.414 23.058c-.642 1.798-1.349 3.276-3.083 3.468h-.45c-.192 0-.449-.064-.642-.064s-.385-.064-.578-.193c-1.541-.578-1.734-2.633-1.927-3.918l-2.312-22.608v-.385c-.064-.707-.193-1.028-.45-1.028s-.385.257-.578.643l-9.891 22.48-.449 1.027-10.598-23.058-.257-.578c-.192-.385-.385-.578-.578-.578-.192 0-.385.257-.385.642l-2.569 24.407c-.193 1.477-.257 2.826-1.478 3.083a7.08 7.08 0 01-1.027.064c-.193 0-.386.064-.386.193 0 .257.257.385.643.385h.706c.899 0 1.991-.064 2.312-.064.322 0 1.992.064 3.276.064.257 0 .578 0 .578-.193 0-.064.064-.064.064-.192 0-.064-.192-.193-.257-.193-.192 0-.449 0-.835-.064-.192 0-.385-.064-.578-.064-.578-.065-.899-.643-.899-1.22V26.95l1.349-17.405h.193c.064.257.449 1.027.835 2.12 1.284 3.018 3.596 8.156 3.725 8.606.193.385 3.211 6.872 4.11 8.67.643 1.35.835 1.735 1.092 1.735.193 0 .257-.065.45-.45.193-.257.385-.706.706-1.541l8.607-19.461h.064l.193 2.376 1.477 17.02c.064.643 0 1.285-.064 1.35-.193 0-.257.063-.257.256s.193.257 1.028.385h.192c1.477.065 4.946.193 5.781.193.192 0 .257 0 .385-.064 1.349 0 2.633-.064 2.955-.064.449 0 1.991.064 2.954.064.193 0 .385 0 .45-.064.064 0 .064-.065.064-.193 0-.193-.064-.193-.386-.193h-.449c-.642 0-1.349-.385-1.349-1.092 0-.642.193-1.541.578-2.44l2.184-6.616c.064-.192.193-.257.385-.257h7.964c.193 0 .257.065.386.193l.064.257 3.404 8.863c.193.578 0 .9-.193 1.028-.192 0-.256.064-.256.257 0 .257.385.257 1.091.257h.065c2.569.064 5.138.064 5.652.064.257 0 .578 0 .642-.064.064-.064.064-.064.064-.193.257-.192.129-.192-.128-.192zM172.051 18.6h-7.129c-.064 0-.193-.064-.064-.257l3.275-10.084c.193-.578.386-.578.579 0l.385 1.092 3.083 8.992c.064.064.064.257-.129.257zM122.155 2.608s0 .07 0 0c0 .07 0 0 0 0-.139 0-.139 0 0 0zm-6.495 34.56h1.542v-.386h-1.542v-.899h1.606v-.385h-1.991v3.019h2.119v-.322h-1.734v-1.027zm4.432.059c0-.064-.064-.064-.192-.193-.065 0-.065-.064-.065-.064s-.064-.064-.192-.064c-.129 0-.193-.064-.193-.064h-.385s-.064 0-.193-.065c-.064 0-.064-.064-.193-.064l-.064-.064v-.193c0-.193.064-.257.193-.385.064-.064.257-.064.449-.064.257 0 .45.064.643.257v.064l.385-.257v-.064a.99.99 0 00-.385-.257c-.257-.065-.707-.193-1.028 0-.193.064-.257.192-.385.257-.065.192-.193.257-.193.45 0 .063 0 .256.064.385.064.064.064.192.193.256.064.065.193.065.257.193.064 0 .193.064.257.064s.192.065.257.065c0 0 .064 0 .192.064.065 0 .065.064.193.064l.064.064v.193c0 .193-.064.257-.192.385-.065.065-.257.065-.45.065s-.257 0-.385-.065l-.257-.257v-.064l-.386.257v.064c.065.193.257.257.45.386.193.064.385.064.578.064.257 0 .578-.064.706-.193.193-.193.386-.385.386-.642v-.257c0-.193 0-.193-.129-.321zm2.954-1.542c-.192-.192-.449-.192-.835-.192h-.899v3.018h.45v-1.348h.578c.385 0 .642-.065.835-.193.193-.064.257-.385.257-.642s-.193-.45-.386-.643zm-1.348.193h.449c.45 0 .707.193.707.45 0 .192-.065.257-.193.385-.064.064-.257.193-.578.193h-.45v-1.028h.065zm3.982 1.285c.193 0 .386-.065.578-.257.193-.193.257-.386.257-.578 0-.257-.064-.578-.385-.643-.193-.064-.45-.192-.835-.192h-1.028v3.018h.45v-1.348h.449l.835 1.348h.578l-.899-1.348zm-.899-1.285h.578c.45 0 .707.193.707.45 0 .192-.065.257-.193.385-.064.064-.257.064-.578.064h-.45v-.899h-.064zm3.147 1.285h1.413v-.386h-1.413v-.899h1.541v-.385h-2.055v3.018h2.12v-.32h-1.606v-1.028zm4.367.064c0-.064-.064-.064-.193-.193h-.064l-.064-.064s-.064-.064-.193-.064a.653.653 0 01-.193-.064h-.385s-.064 0-.193-.065c-.064 0-.064-.064-.192-.064l-.065-.064v-.193c0-.193.065-.257.193-.385.064-.064.257-.064.45-.064.257 0 .449.064.642.256v.065l.385-.257v-.064a.97.97 0 00-.385-.257c-.193-.065-.385-.065-.578-.065-.193 0-.385 0-.45.065-.192.064-.257.192-.385.257-.064.192-.193.256-.193.45 0 .063 0 .256.065.385.064.064.064.192.192.256.064.065.193.065.257.193.064 0 .193.064.257.064s.193.065.257.065.064 0 .193.064c.064 0 .064.064.192.064l.065.064v.193c0 .193-.065.257-.193.385-.064.065-.257.065-.45.065-.192 0-.257 0-.385-.065l-.257-.257v-.064l-.385.257v.064c.064.193.257.257.449.386.193.064.386.064.578.064.257 0 .578-.064.707-.193.192-.193.385-.385.385-.642v-.257c0-.193 0-.193-.064-.321zm3.018 0c0-.064-.064-.064-.192-.193h-.065l-.064-.064s-.064-.064-.193-.064a.645.645 0 01-.192-.064h-.386s-.064 0-.192-.065c-.064 0-.064-.064-.193-.064l-.064-.064v-.193c0-.193.064-.257.193-.385.064-.064.256-.064.449-.064.257 0 .45.064.642.256v.065l.386-.257v-.064a.987.987 0 00-.386-.257c-.192-.065-.385-.065-.578-.065-.192 0-.385 0-.449.065-.193.064-.257.192-.386.257-.064.192-.192.256-.192.45 0 .063 0 .256.064.385.064.064.064.192.193.256.064.065.192.065.257.193.064 0 .192.064.385.064.064 0 .193.065.257.065s.064 0 .192.064c.065 0 .065.064.193.064l.064.064v.193c0 .193-.064.257-.192.385-.065.065-.257.065-.45.065s-.257 0-.385-.065l-.257-.257v-.064l-.386.257v.064c.065.193.257.257.45.386.193.064.385.064.578.064.257 0 .578-.064.707-.193.192-.193.385-.385.385-.642v-.257c-.193-.193-.193-.193-.193-.321zm3.855-1.349c-.386-.257-.707-.45-1.221-.45-.513 0-.899.193-1.22.45-.257.257-.45.706-.45 1.092 0 .45.193.835.45 1.092.257.257.707.45 1.22.45.514 0 .9-.193 1.221-.45.321-.257.449-.642.449-1.092 0-.45-.192-.835-.449-1.092zm-1.221 2.377c-.385 0-.642-.065-.899-.386-.257-.257-.385-.578-.385-.835 0-.385.064-.642.385-.835.257-.257.578-.385.899-.385.386 0 .707.064.9.385.256.257.385.578.385.835 0 .386-.064.642-.385.835-.257.193-.514.386-.9.386zm7.322-1.028c0-.064-.064-.064-.192-.193-.064-.064-.064-.064-.193-.064 0 0-.064-.064-.193-.064h-.385s-.064 0-.193-.064c-.064 0-.064-.065-.192-.065l-.065-.064v-.193c0-.192.065-.257.193-.385.064-.064.257-.064.45-.064.257 0 .449.064.642.257v.064l.385-.257v-.064c-.064-.064-.192-.193-.385-.257s-.385-.064-.578-.064c-.193 0-.385 0-.45.064-.192.064-.257.193-.385.257-.064.192-.193.257-.193.45 0 .063 0 .256.065.385.064.064.064.192.192.257.064.064.193.064.257.192.064 0 .193.065.257.065s.193.064.257.064.064 0 .193.064c.064 0 .064.064.192.064l.065.064v.193c0 .193-.065.257-.193.386a.734.734 0 01-.45.192c-.192 0-.257 0-.385-.064l-.257-.257v-.064l-.385.257v.064c.064.193.257.257.449.385.193.065.386.065.578.065.257 0 .578-.065.707-.193.192-.193.385-.386.385-.642v-.257c-.193-.386-.193-.386-.193-.514zm.643-1.349h1.092v2.633h.449v-2.633h1.028v-.385h-2.569v.385zm3.853-.385h-.45v3.018h.45v-3.018zm1.541 0h-.385v3.018h1.862v-.32h-1.477v-2.698zm2.763 1.67h1.541v-.386h-1.541v-.899h1.67v-.385h-2.12v3.018h2.12v-.32h-1.67v-1.028zm7.128-1.67h-.449v3.018h.449v-3.018zm.836.385h.963v2.633h.514v-2.633h.963v-.385h-2.44v.385zm4.367-.385h-.386l-1.348 3.018h.449l.386-.706h1.541l.385.706h.45l-1.477-3.018zm-.707 1.862l.643-1.348.642 1.348h-1.285zm3.341-1.862h-.45v3.018h1.927v-.32h-1.477v-2.698zm2.761 0h-.45v3.018h.45v-3.018zm2.569 0h-.385l-1.349 2.954-.064.064h.449l.386-.706h1.541l.385.706h.45l-1.413-3.018zm-.835 1.862l.642-1.348.643 1.348h-1.285zm5.202.515l-1.734-2.377h-.513v3.018h.449v-2.376l1.734 2.376h.45v-3.018h-.386v2.376zm4.304-1.992c-.386-.257-.707-.45-1.221-.45-.513 0-.899.193-1.22.45-.385.257-.45.706-.45 1.092 0 .45.193.835.45 1.092.385.257.707.45 1.22.45.514 0 .9-.193 1.221-.45.385-.257.449-.642.449-1.092.064-.45-.064-.835-.449-1.092zm-1.156 2.377c-.386 0-.643-.065-.9-.386-.257-.257-.385-.578-.385-.835 0-.385.064-.642.385-.835.257-.257.578-.385.9-.385.321 0 .706.064.899.385.257.257.385.578.385.835 0 .386-.064.642-.385.835-.257.193-.514.386-.899.386z" fill="#fff"/></svg>