<svg width="23" height="20" fill="none" xmlns="http://www.w3.org/2000/svg"><path d="M11.495 20c5.89 0 10.683-4.486 10.683-10 0-.952-.142-1.89-.423-2.788-.139-.442-.631-.695-1.104-.566-.473.13-.743.592-.605 1.034.233.746.351 1.527.351 2.32 0 4.595-3.993 8.333-8.902 8.333-4.908 0-8.902-3.738-8.902-8.333 0-4.595 3.994-8.333 8.902-8.333 1.784 0 3.5.488 4.964 1.411a.926.926 0 001.235-.225.8.8 0 00-.24-1.156C15.696.587 13.635 0 11.495 0 5.605 0 .813 4.486.813 10s4.792 10 10.682 10z" fill="#C3B595"/><path d="M20.624 1.628l-9.367 8.736L8.26 7.57a.957.957 0 00-1.287 0 .81.81 0 000 1.2l3.64 3.395a.94.94 0 00.644.249.94.94 0 00.643-.249l10.011-9.337a.81.81 0 000-1.2.957.957 0 00-1.287 0z" fill="#C3B595"/></svg>